<svg width="15" height="13" viewBox="0 0 15 13" fill="none" xmlns="http://www.w3.org/2000/svg">
<path d="M9.33916 8.52507C9.33916 8.75978 9.14906 8.94988 8.91435 8.94988H6.36549C6.13078 8.94988 5.94068 8.75978 5.94068 8.52507V7.25064H0.842957V11.0739C0.842957 11.7536 1.43769 12.3484 2.11739 12.3484H13.1625C13.8422 12.3484 14.4369 11.7536 14.4369 11.0739V7.25064H9.33916V8.52507ZM13.1625 3.00254H11.0384V1.7281C11.0384 1.04841 10.4437 0.453674 9.76397 0.453674H5.51587C4.83617 0.453674 4.24144 1.04841 4.24144 1.7281V3.00254H2.11739C1.43769 3.00254 0.842957 3.59727 0.842957 4.27697V6.40102H14.4369V4.27697C14.4369 3.59727 13.8422 3.00254 13.1625 3.00254ZM9.33916 3.00254H5.94068V2.15292H9.33916V3.00254Z" fill="#E5E5E5" fill-opacity="0.9"/>
</svg>
