<svg width="13" height="12" viewBox="0 0 13 12" fill="none" xmlns="http://www.w3.org/2000/svg">
<path d="M11.007 0H1.66115C1.32315 0 0.998993 0.13427 0.759991 0.373272C0.520989 0.612274 0.386719 0.936431 0.386719 1.27443L0.386719 10.6203C0.386719 10.9583 0.520989 11.2824 0.759991 11.5214C0.998993 11.7604 1.32315 11.8947 1.66115 11.8947H11.007C11.345 11.8947 11.6691 11.7604 11.9081 11.5214C12.1471 11.2824 12.2814 10.9583 12.2814 10.6203V1.27443C12.2814 0.936431 12.1471 0.612274 11.9081 0.373272C11.6691 0.13427 11.345 0 11.007 0ZM10.5718 8.16087L10.1735 9.88666C10.1533 9.9744 10.104 10.0527 10.0335 10.1088C9.96306 10.1649 9.87569 10.1954 9.78564 10.1954C5.53754 10.1954 2.08596 6.75156 2.08596 2.49576C2.08912 2.40656 2.12083 2.32074 2.17641 2.25091C2.232 2.18108 2.30853 2.13094 2.39474 2.10785L4.12053 1.7096C4.14997 1.70337 4.17993 1.6999 4.21001 1.69924C4.28702 1.70313 4.3616 1.72756 4.42598 1.77C4.49036 1.81244 4.54221 1.87134 4.57614 1.94059L5.37266 3.79913C5.39217 3.84924 5.40303 3.9023 5.40479 3.95604C5.39831 4.07394 5.34588 4.1846 5.25876 4.2643L4.25276 5.08737C4.86231 6.3793 5.9021 7.41909 7.19404 8.02865L8.01711 7.02264C8.0968 6.93552 8.20746 6.8831 8.32536 6.87661C8.37911 6.87834 8.43217 6.88921 8.48227 6.90874L10.3408 7.70526C10.4101 7.73915 10.469 7.79098 10.5115 7.85538C10.5539 7.91977 10.5783 7.99436 10.5822 8.07139C10.5816 8.10148 10.5782 8.13145 10.5718 8.16087Z" fill="#E5E5E5" fill-opacity="0.9"/>
</svg>
